<?xml version="1.0" encoding="UTF-8"?>
<svg xmlns="http://www.w3.org/2000/svg" viewBox="0 0 24 24" width="48" height="48">
  <path d="M10.383 19.792c-.927 0-1.822-.14-2.684-.42a7.39 7.39 0 01-2.212-1.182 5.482 5.482 0 01-1.496-1.816 4.945 4.945 0 01-.544-2.333c0-.774.134-1.516.401-2.228a5.712 5.712 0 011.145-1.877 6.92 6.92 0 011.783-1.392 6.68 6.68 0 012.304-.732c.14-.11.28-.022.422-.031.141-.008.282-.013.423-.013.252 0 .505.013.758.039.254.026.508.063.762.11v1.914a5.672 5.672 0 00-1.316-.319 7.04 7.04 0 00-1.297-.023 4.52 4.52 0 00-1.708.43 4.177 4.177 0 00-1.356.996 4.369 4.369 0 00-.88 1.437 4.88 4.88 0 00-.314 1.746c0 .604.094 1.172.282 1.703.188.532.452.997.793 1.395a3.8 3.8 0 001.222.946c.471.232.999.348 1.581.348.31 0 .62-.025.929-.074.31-.05.616-.124.918-.225.303-.1.597-.224.883-.371.286-.147.56-.314.824-.501v2.078a7.205 7.205 0 01-1.843.645 9.82 9.82 0 01-1.705.165zM13.629 19.56v-5.5h3.644V19.56h1.875V7.84h-1.875v4.51h-3.644V7.84h-1.874V19.56h1.875z" fill="#649AD2"/>
</svg>
