<?xml version="1.0" encoding="UTF-8"?>
<svg xmlns="http://www.w3.org/2000/svg" viewBox="0 0 24 24" width="48" height="48">
  <path d="M5.016 13.153c0-2.376 1.645-4.32 3.81-4.32.15 0 .301.012.446.03-1.912.512-3.323 2.325-3.323 4.483 0 2.455 1.84 4.458 4.11 4.458.091 0 .177-.02.266-.027-2.001-.223-3.578-2.078-3.578-4.406 0-.075.015-.145.018-.219H5.016v.001zm12.078-3.96c-.615-.725-1.635-1.2-2.91-1.2-2.555 0-4.629 2.253-4.629 5.03 0 2.777 2.074 5.03 4.629 5.03 1.275 0 2.295-.476 2.91-1.2h2.912V19H1.993V5h18.013v9.193h-2.913z" fill="#E34F26"/>
  <path d="M2 1h20v10H2z" fill="#1572B6"/>
</svg>
