<?xml version="1.0" encoding="UTF-8"?>
<svg xmlns="http://www.w3.org/2000/svg" viewBox="0 0 24 24" width="48" height="48">
  <path d="M21.178 12.041a1.244 1.244 0 0 0-.907-.902c-2.6-.772-4.032 1.02-4.554 3.114l-2.14-1.197c.148-.04.296-.08.417-.12a1.716 1.716 0 0 0 1.137-2.097 1.584 1.584 0 0 0-1.756-1.178 1.704 1.704 0 0 0-1.451 1.48 1.548 1.548 0 0 0 .514 1.423l-3.03-1.7c.126-.029.253-.086.38-.144a1.716 1.716 0 0 0 1.137-2.097 1.584 1.584 0 0 0-1.756-1.178 1.704 1.704 0 0 0-1.451 1.48 1.548 1.548 0 0 0 .514 1.423l-3.328-1.866a1.376 1.376 0 0 0-.488-1.58 1.38 1.38 0 0 0-1.674.028 1.371 1.371 0 0 0-.342 1.64 1.376 1.376 0 0 0 1.58.488l3.218 1.802a1.52 1.52 0 0 0-.189.257 1.713 1.713 0 0 0 .48 2.37 1.586 1.586 0 0 0 1.911.265 1.703 1.703 0 0 0 .883-1.854 1.546 1.546 0 0 0-1.017-1.15l3.03 1.697a1.52 1.52 0 0 0-.189.257 1.713 1.713 0 0 0 .48 2.37 1.586 1.586 0 0 0 1.911.265 1.703 1.703 0 0 0 .883-1.854 1.546 1.546 0 0 0-1.017-1.15l2.138 1.197c.04.154.109.303.154.451.714 2.531 2.606 3.548 4.822 2.888a1.242 1.242 0 0 0 .772-1.664 1.245 1.245 0 0 0-1.7-.515c-.857.423-1.48.04-1.866-1.1.846-1.04 1.714-1.256 2.431-1.036a1.242 1.242 0 0 0 1.52-.76Z" fill="#000000"/>
</svg>
