<?xml version="1.0" encoding="UTF-8"?>
<svg xmlns="http://www.w3.org/2000/svg" viewBox="0 0 24 24" width="48" height="48">
  <path d="M17.18 9.518c-1.263-5.56-4.242-7.387-4.562-8.086C12.266.939 11.885 0 11.885 0c-.002.019-.004.031-.005.049v.013h-.001c-.002.015-.003.025-.004.039v.015h-.002c0 .01-.002.018-.002.026v.026h-.003c-.001.008-.001.018-.003.025v.021h-.002c0 .007 0 .015-.002.021v.02h-.002c0 .01-.001.022-.002.032v.002c-.003.017-.006.034-.009.05v.008h-.002c-.001.004-.003.008-.003.012v.017h-.003v.022h-.005v.018h-.005v.021h-.004v.019h-.004v.017h-.006v.014h-.004v.018h-.004v.014h-.005v.013H11.8v.015h-.004c-.001.001-.001.003-.001.004v.01h-.003c-.001.002-.001.004-.001.006v.006h-.002c-.001.003-.002.008-.002.01-.003.007-.007.014-.01.021v.002c-.002.002-.004.005-.005.007v.008h-.004v.008h-.005v.008h-.003v.01h-.006v.014h-.004v.004h-.004v.008h-.004v.011h-.004v.008h-.006v.011h-.004v.008h-.005v.008h-.003v.01h-.005v.008h-.004v.006h-.003l-.002.004v.004h-.002c0 .002-.002.002-.002.004v.001h-.001c-.001.003-.002.005-.004.007v.003h-.001c-.005.006-.008.012-.012.018v.001c-.002.002-.007.006-.009.01v.002h-.001c-.001.001-.003.002-.003.003v.003h-.002l-.003.003v.001h-.001c0 .001-.002.002-.003.004v.004h-.003l-.002.002v.002h-.002c0 .002-.002.002-.002.003v.003h-.004c0 .001-.001.002-.002.003V.92h-.003v.004h-.004V.93h-.004v.008h-.005V.93h-.005v.004h-.004V.94h-.005v.008h-.005v.004h-.004v.006h-.004v.004h-.004V.97h-.006v.004h-.004V.98h-.005v.004h-.004v.005h-.005v.01h-.002v.004h-.006v.005h-.004v.002h-.004v.004h-.005v.01h-.004v.004h-.005v.004h-.004v.006h-.005v.004h-.005v.004h-.004v.004h-.004v.01h-.004v.005h-.006v.004h-.004v.004h-.005v.006h-.004v.004h-.005v.007h-.004v.004h-.006V1.1h-.002v.004h-.004v.004h-.005v.004h-.004v.006h-.005v.004h-.003c-.001.001-.001.002-.001.002v.002h-.002l-.004.004s-.002.002-.004.003v.006h-.004v.005h-.004v.004h-.004v.004h-.003l-.003.003v.003h-.002l-.002.002v.003h-.002c-.005.006-.007.01-.014.016-.002.002-.008.007-.012.01-.012.008-.027.021-.039.032-.008.005-.016.012-.022.017v.001h-.001c-.016.013-.031.025-.049.039v.001c-.024.02-.047.039-.074.062V1.34h-.002c-.057.047-.117.1-.186.159V1.5h-.001c-.169.148-.37.338-.595.568l-.015.015-.004.004c-.014.014-.027.029-.04.043l-.01.012-.006.006v.001l-.006.007-.044.05-.1.115c-.194.232-.38.471-.55.716-.161.239-.312.487-.45.743-.136.255-.258.516-.366.78-.109.263-.206.528-.29.795-.077.26-.144.524-.198.788-.051.26-.089.522-.117.782-.027.259-.043.519-.05.777-.006.259-.001.513.017.766.018.253.048.503.087.753.04.25.09.498.15.744.063.246.136.49.218.728.084.239.177.476.28.705.104.235.219.463.344.683.126.22.262.44.408.645l.016.02c.157.193.32.384.486.568.17.185.341.367.512.534l.052.051c.387.387.793.754 1.218 1.093.202.163.41.32.627.468l.057.04c.217.146.437.282.664.41.226.127.456.243.688.354.232.11.468.213.704.31.235.095.472.184.704.26l.034.01.108.036c.159.05.318.097.479.141.164.045.33.086.496.124.165.037.336.07.506.1.168.03.338.057.508.08.17.023.339.043.51.06.17.016.336.03.503.043l.083.005c.212.014.422.023.631.028.215.005.427.005.64 0l.104-.003c.212-.008.422-.022.631-.04l.108-.012c.209-.024.416-.055.622-.09.203-.033.405-.073.605-.118.2-.045.398-.095.595-.15.195-.054.388-.114.58-.177.19-.063.378-.13.564-.202.185-.07.368-.147.548-.227.18-.079.358-.164.534-.253.176-.089.349-.181.518-.28.17-.099.337-.202.5-.311.165-.11.326-.223.484-.343l.075-.055c.157-.12.312-.243.464-.372.145-.121.288-.248.428-.377.14-.129.277-.262.409-.399.133-.136.26-.279.383-.422.121-.143.24-.288.354-.438.114-.149.225-.3.33-.458l.004-.006c.105-.156.205-.317.301-.48l.018-.03c.094-.168.184-.337.27-.508.084-.17.166-.342.242-.514l.008-.018c.073-.176.144-.352.208-.53l.004-.012c.063-.175.122-.353.177-.53.053-.178.104-.355.148-.533l.011-.046c.042-.171.08-.344.115-.515l.003-.013c.033-.171.064-.34.09-.511l.003-.022c.025-.167.047-.334.065-.501V12.5h.001c.02-.179.037-.358.05-.538l.001-.015c.013-.18.022-.36.028-.54l.001-.036c.004-.12.006-.244.006-.366s-.002-.245-.006-.366l-.001-.035c-.007-.181-.016-.362-.028-.54l-.001-.016c-.013-.18-.03-.359-.05-.538v-.012c-.019-.168-.041-.334-.065-.5l-.006-.035c-.026-.17-.057-.339-.09-.51l-.004-.022c-.034-.171-.073-.343-.115-.515l-.011-.047c-.044-.178-.095-.355-.148-.533-.057-.178-.114-.353-.177-.53l-.004-.013c-.066-.179-.136-.354-.209-.53l-.007-.016c-.076-.172-.158-.344-.242-.514-.086-.171-.176-.34-.27-.507l-.018-.032c-.096-.162-.196-.323-.301-.48l-.004-.006c-.105-.158-.216-.309-.33-.458-.117-.154-.236-.3-.358-.442-.12-.143-.246-.285-.38-.42-.13-.137-.268-.269-.409-.399-.14-.129-.283-.256-.428-.376-.152-.129-.307-.252-.464-.372l-.075-.055c-.157-.12-.318-.233-.484-.343-.162-.109-.33-.212-.5-.311-.168-.099-.342-.191-.518-.28-.176-.089-.353-.174-.534-.253-.18-.08-.363-.157-.548-.227-.187-.072-.375-.139-.564-.202-.193-.063-.385-.123-.58-.177-.197-.055-.396-.105-.595-.15-.2-.045-.403-.085-.605-.118-.206-.034-.414-.065-.622-.09l-.108-.012c-.209-.018-.42-.032-.631-.04l-.104-.003c-.212-.005-.425-.005-.64 0-.209.005-.419.014-.63.028l-.084.005c-.166.013-.333.027-.502.043-.172.017-.34.037-.51.06-.17.023-.34.05-.51.08-.17.03-.34.063-.505.1-.165.038-.332.08-.496.124-.161.045-.32.092-.478.14l-.109.037-.034.01c-.232.076-.469.165-.704.26-.236.097-.47.2-.704.31-.232.11-.462.227-.688.353-.227.129-.447.264-.664.41l-.057.04c-.217.148-.425.305-.627.468-.425.339-.83.706-1.217 1.093l-.053.051c-.17.166-.342.348-.512.534-.166.184-.329.375-.486.568l-.016.02c-.146.205-.282.425-.408.645-.127.22-.24.447-.345.683-.103.235-.195.47-.28.705-.084.242-.156.487-.218.728-.061.246-.11.494-.149.743-.039.25-.07.501-.087.753-.018.254-.023.508-.017.766.007.258.023.518.05.777.028.26.066.523.118.782.053.264.12.528.197.788.084.267.181.532.29.795.108.264.23.525.366.78.138.257.29.504.45.743.17.245.355.484.55.716l.1.115.043.05.007.008c.014.015.027.031.04.045l.015.015c.23.237.44.435.616.591.116.102.235.195.353.279l.019.012c.076.048.153.096.232.14l.028.015c.273.152.557.263.848.333.1.022.2.04.302.052.14.017.282.024.425.024.16 0 .321-.012.48-.035.13-.019.258-.047.384-.084l.032-.01c.123-.037.242-.084.36-.14l.02-.008c.07-.035.137-.07.2-.112.07-.043.142-.092.212-.142l.058-.043c.19-.142.368-.305.517-.477l.024-.029c.098-.113.188-.232.274-.355.087-.124.171-.252.245-.383.135-.239.249-.499.33-.77l.011-.046c.044-.147.08-.294.105-.444l.014-.09c.024-.15.038-.301.041-.451.002-.07.001-.141-.002-.213a4.55 4.55 0 0 0-.03-.306l-.013-.107-.037-.222-.01-.064c-.033-.17-.074-.34-.122-.507l-.058-.199c-.047-.157-.101-.313-.163-.465l-.09-.22c-.079-.186-.168-.368-.27-.545l-.031-.06a6.632 6.632 0 0 0-.335-.533c-.136-.202-.289-.398-.456-.585l-.055-.067a7.823 7.823 0 0 0-.55-.587 16.85 16.85 0 0 0-.64-.609c-.209-.186-.427-.364-.651-.534-.221-.17-.447-.333-.68-.487l-.066-.04a9.842 9.842 0 0 0-.59-.34c-.205-.11-.413-.213-.625-.309a17.248 17.248 0 0 0-.653-.284l-.03-.012c-.22-.086-.443-.166-.668-.239l-.076-.023a12.93 12.93 0 0 0-.654-.186 16.692 16.692 0 0 0-.693-.158c-.237-.046-.476-.088-.716-.123-.238-.035-.476-.065-.716-.09-.239-.025-.479-.045-.719-.06l-.096-.006a18.056 18.056 0 0 0-.695-.026l-.095-.001c-.253 0-.503.007-.753.021l-.114.008c-.249.019-.495.044-.74.074l-.003.001c-.245.031-.488.068-.73.11l-.1.019c-.243.047-.484.099-.723.158-.124.03-.247.06-.37.093h-.001c-.13.035-.26.072-.388.11l-.022.006c-.235.07-.467.145-.697.227-.242.086-.481.18-.718.28l-.042.017c-.273.116-.541.239-.802.368-.261.13-.518.266-.768.411-.251.145-.497.297-.735.458l-.029.02c-.212.143-.42.294-.623.451l-.085.066c-.138.109-.274.221-.407.337-.135.118-.267.239-.396.363-.137.13-.269.264-.399.4l-.069.074c-.096.102-.19.205-.281.31-.09.105-.177.21-.261.319-.085.109-.166.219-.244.332-.079.114-.155.229-.229.347-.073.118-.145.237-.213.358-.069.12-.133.243-.195.367-.061.122-.12.244-.175.37-.053.121-.105.246-.154.372l-.075.204c-.051.14-.098.28-.14.423-.041.14-.08.281-.112.425-.034.144-.063.291-.09.437-.025.147-.048.294-.065.443l-.017.138c-.017.14-.029.28-.038.421-.01.14-.016.281-.018.423v.051c-.002.149 0 .298.006.447.004.148.013.295.025.443l.014.156c.015.14.035.28.058.42.023.142.05.283.08.423.032.14.065.28.104.419.039.138.083.276.13.412l.065.182c.052.14.11.277.17.413.06.134.125.267.192.399.069.133.142.266.22.394.077.13.158.256.243.38.085.124.173.246.266.366.092.119.187.235.288.349.099.112.202.223.309.33.107.109.218.213.331.316.114.103.231.203.35.299.121.097.245.191.372.28.126.09.255.176.388.26l.08.047c.185.112.375.217.57.313l.095.045c.21.098.424.188.645.27l.05.018c.22.08.443.151.671.214.115.032.23.062.347.088.116.026.233.05.35.07.118.021.236.039.354.054.12.015.24.028.36.038l.15.011c.187.014.376.023.566.026.19.004.38.001.57-.009l.072-.004c.193-.016.384-.04.574-.072l.077-.015c.12-.025.24-.052.358-.082.119-.03.238-.063.355-.098.118-.035.235-.073.35-.114.115-.041.23-.085.342-.13l.101-.044c.17-.076.336-.158.5-.244.163-.087.324-.177.48-.272l.114-.074c.102-.067.202-.137.3-.208l.092-.066c.203-.151.4-.312.589-.482l.036-.034c.155-.148.304-.301.447-.46.142-.157.28-.318.409-.485.13-.167.253-.34.368-.515.116-.177.225-.357.326-.543.1-.185.194-.374.28-.567l.035-.08c.14-.336.25-.682.331-1.031l.026-.132c.052-.24.091-.48.117-.723l.01-.122c.019-.182.033-.364.04-.547l.003-.099c.005-.21.004-.42-.004-.628-.01-.208-.026-.415-.05-.62l-.014-.131c-.027-.195-.06-.39-.098-.583-.039-.192-.084-.383-.135-.571l-.038-.141c-.057-.195-.12-.388-.19-.578a8.248 8.248 0 0 0-.236-.566 8.124 8.124 0 0 0-.565-1.01 8.252 8.252 0 0 0-.711-.935l-.13-.141a8.432 8.432 0 0 0-.763-.704 9.31 9.31 0 0 0-.826-.608 10.41 10.41 0 0 0-.892-.51l-.115-.055a12.058 12.058 0 0 0-.957-.398c-.327-.118-.66-.22-.997-.305l-.15-.035c-.35-.076-.706-.134-1.065-.175l-.113-.013c-.372-.038-.746-.06-1.123-.064H12.65l-.038.001c-.366.004-.73.026-1.09.065l-.132.017c-.354.043-.705.103-1.05.181l-.153.036c-.334.084-.663.184-.986.3-.325.117-.644.25-.953.397l-.12.057a10.415 10.415 0 0 0-.886.509c-.292.184-.574.384-.845.6-.27.215-.532.444-.78.686l-.099.098a8.28 8.28 0 0 0-.72.828 8.19 8.19 0 0 0-.58.839 8.124 8.124 0 0 0-.434.826c-.067.144-.129.289-.186.436l-.04.103c-.07.19-.134.383-.19.578-.057.196-.106.394-.148.593l-.026.135c-.038.195-.07.39-.095.586-.024.197-.042.394-.054.592l-.007.125c-.007.205-.009.41-.004.615l.003.112c.007.183.02.365.04.547l.01.112c.025.244.064.485.117.726.053.24.117.478.192.713l.03.093c.036.103.074.206.115.308l.044.103c.073.17.152.337.238.501.086.163.178.323.277.479.099.156.203.309.315.456.11.148.228.291.35.43.124.138.252.272.386.401.134.13.274.255.418.374.145.12.295.234.45.342.153.109.312.211.475.308l.118.065c.18.097.363.188.55.27l.13.054c.133.054.267.104.403.15.137.045.275.087.414.124.14.038.28.07.422.099l.134.026c.147.026.295.047.444.064.148.017.297.03.446.038l.18.007c.312.01.623.001.933-.026.155-.014.31-.033.464-.056l.142-.023c.15-.025.299-.056.446-.09.15-.035.298-.075.446-.12.147-.044.294-.093.437-.146l.142-.057c.169-.069.335-.143.5-.223.163-.08.324-.166.482-.256l.121-.075c.103-.065.205-.133.305-.202l.096-.07c.192-.143.38-.294.56-.455l.034-.032c.194-.178.379-.367.555-.566l.046-.055c.13-.156.255-.316.372-.481.118-.166.229-.336.332-.511.102-.176.198-.355.284-.539.087-.185.166-.373.236-.564l.022-.063c.11-.339.193-.685.25-1.035l.019-.15c.034-.224.059-.449.072-.675l.006-.13c.009-.192.013-.384.01-.576-.002-.191-.01-.382-.026-.57l-.01-.14c-.018-.177-.042-.353-.072-.528a8.416 8.416 0 0 0-.37-1.433 8.48 8.48 0 0 0-.579-1.25 8.437 8.437 0 0 0-.78-1.108l-.107-.126a8.499 8.499 0 0 0-.962-.92c-.347-.29-.715-.56-1.098-.807l-.064-.037c-.401-.233-.817-.443-1.246-.628-.43-.185-.871-.347-1.32-.485l-.097-.028a13.08 13.08 0 0 0-1.392-.341 14.426 14.426 0 0 0-1.461-.22l-.11-.01c-.493-.04-.99-.059-1.486-.059-.497 0-.992.02-1.484.058l-.129.013a14.744 14.744 0 0 0-1.443.22c-.47.092-.933.205-1.389.34l-.112.034c-.445.137-.882.297-1.308.48-.426.185-.839.394-1.238.625l-.078.045a11.797 11.797 0 0 0-1.143.796c-.36.285-.704.59-1.03.916l-.038.038c-.321.327-.622.674-.9 1.04a9.247 9.247 0 0 0-.576.873c-.172.295-.329.599-.47.91-.14.314-.266.634-.374.962-.108.328-.2.662-.276 1l-.035.17a10.98 10.98 0 0 0-.211 1.692 11.88 11.88 0 0 0 .036 1.473c.023.32.057.64.102.958l.026.157c.051.265.11.527.179.788.069.26.147.517.234.773.086.256.183.51.288.758.105.25.22.495.342.736.124.241.256.478.396.71.14.23.288.457.445.677.156.221.321.437.492.646.172.21.353.414.54.613l.094.096c.207.21.422.414.644.61.223.197.454.387.691.57.237.182.48.357.73.524.25.167.505.327.767.479l.098.054c.289.155.583.3.882.436.3.135.603.262.913.38.309.118.622.227.94.327.319.1.641.191.967.273l.06.015c.354.086.712.162 1.072.227.362.065.726.12 1.092.163l.103.013c.375.043.753.075 1.13.096.38.021.76.031 1.14.03.38-.001.759-.012 1.137-.033.378-.02.756-.053 1.13-.095l.112-.013c.366-.044.73-.1 1.091-.165.36-.065.718-.141 1.071-.227l.068-.018c.325-.081.647-.173.965-.272.318-.1.631-.21.94-.326.31-.118.614-.245.912-.38.3-.136.594-.281.882-.436l.108-.059c.258-.15.51-.307.756-.47.246-.165.487-.337.72-.517.234-.18.462-.366.682-.561.22-.195.432-.395.636-.603l.103-.107c.184-.195.362-.396.532-.602.17-.207.333-.42.487-.64.155-.22.3-.445.439-.675.138-.231.27-.467.393-.707.123-.241.236-.486.34-.736.105-.25.2-.504.287-.76.088-.257.165-.515.233-.775.068-.261.127-.524.178-.79l.023-.132c.045-.319.08-.639.103-.96.023-.32.035-.642.036-1.163z" fill="#47A248"/>
</svg>
