<?xml version="1.0" encoding="UTF-8"?>
<svg xmlns="http://www.w3.org/2000/svg" viewBox="0 0 24 24" width="48" height="48">
  <path d="M11.572 0c-.176 0-.31.001-.358.007-.218.025-.401.105-.533.223-.149.134-.245.34-.273.583-.035.304-.01.599.076.889.117.395.39.755.73 1.028.58.47 1.298.714 2.097.714.786 0 1.504-.244 2.097-.714.34-.273.614-.633.731-1.028.086-.29.11-.585.075-.889-.027-.243-.123-.449-.272-.583-.133-.118-.313-.198-.53-.222a9.69 9.69 0 0 0-1.195-.03h-2.64c-.001 0-.002 0-.005 0zm10.987 3.68c-.015 0-.033.001-.05.003-.045.006-.095.021-.15.046-.11.045-.222.107-.32.165-.407.23-.79.54-1.151.935a16.8 16.8 0 0 0-1.162 1.469 19.355 19.355 0 0 0-1.055 1.697c-.31.55-.62 1.148-.89 1.766-.276.647-.53 1.296-.765 1.94-.225.622-.43 1.24-.614 1.838-.242.796-.46 1.579-.651 2.334-.109.438-.208.872-.299 1.297-.048.226-.092.45-.132.668a6.5 6.5 0 0 0-.08.474 3.395 3.395 0 0 0-.018.171c0 .01 0 .019-.001.027 0 .005 0 .009-.001.013-.01.11.01.202.08.284.072.088.193.143.312.143a.483.483 0 0 0 .234-.064c.096-.058.164-.141.193-.244.015-.047.022-.11.025-.184.001-.014.002-.03.003-.047.002-.02.004-.042.006-.064l.03-.28c.013-.104.025-.21.038-.314.037-.292.081-.6.13-.92a40.86 40.86 0 0 1 .373-2.048c.197-.95.429-1.92.694-2.871.264-.95.561-1.893.886-2.788.31-.855.668-1.69 1.062-2.479.181-.363.376-.722.578-1.077l.002-.003a35.65 35.65 0 0 1 .544-.909c.143-.227.295-.45.452-.665a9.083 9.083 0 0 1 .291-.367 3.107 3.107 0 0 1 .088-.104l.136-.154c.152-.168.297-.32.426-.451.072-.072.136-.136.191-.188l.224-.22.11-.11.072-.07.013-.013.005-.005.021-.021c.051-.051.092-.083.144-.082a.138.138 0 0 1 .105.039c.029.03.046.075.046.131 0 .069-.029.156-.081.256l-.004.008-.021.04a15.8 15.8 0 0 1-.14.252 30.1 30.1 0 0 1-.477.774c-.164.252-.341.508-.53.764-.185.252-.38.503-.589.75-.209.248-.43.487-.659.718-.487.487-1.019.941-1.607 1.34a10.08 10.08 0 0 1-.542.36c-.248.152-.501.293-.773.419a9.307 9.307 0 0 1-.87.356 7.346 7.346 0 0 1-.454.147c-.056.016-.11.033-.165.046l-.21.05c-.013.003-.026.005-.038.007-.024.004-.047.007-.071.007-.044 0-.082-.016-.112-.049-.03-.034-.041-.076-.041-.117 0-.033.008-.07.026-.114.033-.079.104-.157.229-.243.1-.068.226-.135.378-.202.153-.067.333-.133.538-.197.404-.127.819-.274 1.241-.448.423-.173.854-.377 1.286-.613a10.89 10.89 0 0 0 1.269-.814 8.263 8.263 0 0 0 1.164-1.011c.326-.353.62-.74.877-1.15.256-.41.469-.842.634-1.284.163-.44.272-.885.328-1.324.047-.372.048-.734.003-1.081a2.661 2.661 0 0 0-.258-.824 1.994 1.994 0 0 0-.121-.206 1.487 1.487 0 0 0-.173-.209 1.1 1.1 0 0 0-.21-.174 1.058 1.058 0 0 0-.23-.106 1.318 1.318 0 0 0-.236-.034 1.558 1.558 0 0 0-.227.008c-.147.016-.3.053-.451.108a2.506 2.506 0 0 0-.458.213 3.299 3.299 0 0 0-.427.298c-.13.103-.248.212-.36.327-.294.31-.558.643-.794.996-.118.176-.23.358-.336.545-.113.194-.219.393-.319.597-.201.413-.373.845-.511 1.286-.069.22-.132.442-.187.664a6.96 6.96 0 0 0-.1.524c-.017.101-.032.204-.044.307l-.013.114a1.71 1.71 0 0 0-.001.05c0 .005 0 .009.001.013 0 .09.016.168.05.234.037.071.095.124.167.154a.4.4 0 0 0 .166.032c.139 0 .289-.076.439-.233.075-.078.148-.17.22-.276.071-.105.14-.223.207-.354.134-.262.262-.555.385-.881.062-.162.12-.333.177-.512.056-.177.11-.362.162-.555.102-.375.198-.772.287-1.187.044-.205.085-.415.124-.628.039-.214.077-.43.112-.649.072-.442.135-.892.186-1.346.025-.229.048-.458.067-.689.01-.115.018-.23.026-.346.006-.093.012-.185.017-.279.003-.051.006-.102.008-.153.001-.03.003-.059.004-.089 0-.013.001-.026.001-.04v-.009c.008-.192-.007-.362-.047-.5a.634.634 0 0 0-.146-.248.458.458 0 0 0-.21-.121.639.639 0 0 0-.235-.027 1.208 1.208 0 0 0-.427.101 1.978 1.978 0 0 0-.404.218 2.895 2.895 0 0 0-.36.286 3.788 3.788 0 0 0-.302.312 5.05 5.05 0 0 0-.242.315 5.85 5.85 0 0 0-.216.332c-.063.101-.122.204-.177.31-.057.106-.11.214-.16.324a7.34 7.34 0 0 0-.279.671c-.078.209-.15.422-.216.641-.066.22-.127.443-.183.67-.028.113-.054.227-.079.341-.025.115-.049.23-.071.346-.045.234-.084.471-.116.708-.034.236-.062.472-.084.708-.02.233-.036.467-.046.7a9.494 9.494 0 0 0-.01.688c0 .206.009.407.028.601.03.307.088.598.172.867.084.269.196.514.332.731.136.217.297.403.479.553a1.66 1.66 0 0 0 .643.33c.24.072.5.098.764.072.26-.026.52-.107.771-.243.252-.136.499-.33.738-.58.121-.125.24-.266.354-.419a4.59 4.59 0 0 0 .315-.49 6.5 6.5 0 0 0 .277-.564c.088-.197.17-.4.247-.608.078-.209.15-.422.216-.641.066-.22.127-.443.183-.67.056-.227.107-.456.152-.687.045-.23.085-.462.12-.694.063-.462.107-.925.13-1.386.01-.231.017-.461.02-.688a54.14 54.14 0 0 0-.004-.513c.068.104.135.205.199.304.287.43.569.804.843 1.117.273.313.54.566.796.748.22.158.396.256.524.305.129.048.209.046.244.046a.181.181 0 0 0 .154-.067.214.214 0 0 0 .047-.136.177.177 0 0 0-.003-.036l-.01-.04-.018-.046a.903.903 0 0 0-.035-.064 1.33 1.33 0 0 0-.058-.089 2.9 2.9 0 0 0-.088-.117 5.255 5.255 0 0 0-.122-.145 9.34 9.34 0 0 0-.158-.174 16.435 16.435 0 0 0-.548-.546 15.625 15.625 0 0 0-.726-.636 10.315 10.315 0 0 0-.364-.278 5.644 5.644 0 0 0-.184-.127 3.22 3.22 0 0 0-.092-.058 1.807 1.807 0 0 0-.046-.027l-.008-.005c-.132-.079-.239-.112-.325-.111zm-4.668 4.454a.959.959 0 0 0-.45.105 1.07 1.07 0 0 0-.248.189 1.02 1.02 0 0 0-.174.265 1.059 1.059 0 0 0-.079.303c-.007.069-.007.138 0 .208.008.072.023.143.044.212a.979.979 0 0 0 .195.329.96.96 0 0 0 .312.229 1.255 1.255 0 0 0 .182.068c.064.018.13.031.197.041a1.3 1.3 0 0 0 .193.013c.052 0 .103-.004.153-.01a.898.898 0 0 0 .124-.02l.037-.008.026-.006c.164-.043.315-.123.439-.238a.936.936 0 0 0 .222-.372.932.932 0 0 0 .022-.538.95.95 0 0 0-.228-.433.906.906 0 0 0-.417-.254.982.982 0 0 0-.158-.038 1.103 1.103 0 0 0-.13-.011c-.027 0-.055 0-.082.001a.975.975 0 0 0-.081.006c-.01.001-.019.002-.029.004a.307.307 0 0 0-.027.005l-.024.005-.03.008c-.051.014-.099.03-.145.05a.96.96 0 0 0-.254.16z" fill="#000000"/>
</svg>
