<?xml version="1.0" encoding="UTF-8"?>
<svg xmlns="http://www.w3.org/2000/svg" viewBox="0 0 24 24" width="48" height="48">
  <path d="M12.005 0L4.952 4.735v9.45l7.053 4.735 7.053-4.734v-9.45zm-1.239 4.022a13.67 13.67 0 00-1.342 1.185c.936 1.037 1.513 2.43 1.578 3.877l1.086.064c-.1-2.253-1.318-4.322-1.318-5.126zm2.126.9v1.426a6.84 6.84 0 011.092 3.860c0 .942-.228 1.875-.666 2.724l1.022.592c.557-1.033.85-2.215.852-3.363.009-1.318-.374-2.61-1.096-3.738a5.78 5.78 0 00-1.2-1.502zm-2.776.15c0 .9-1.596 1.914-1.596 4.55-.015 1.13.3 2.236.9 3.15.304.462.722.857 1.2 1.156l.3-1.068a3.167 3.167 0 01-.75-.822 5.418 5.418 0 01-.776-2.826c0-2.364 1.192-3.344 1.192-4.136zm1.482 5.574l-1.08.03c.03 1.194.864 1.703.864 2.243 0 .405-.108.476-.312.9l1.074.332c.252-.613.444-1.006.444-1.586-.002-.803-.99-1.257-.99-1.92zm-2.25.06c-.81.03-.87.63-.87 1.14 0 .853.73 1.672.73 1.672l.872-.54c-.408-.308-.716-.758-.9-1.266.005-.292.108-.575.29-.8z" fill="#EE4C2C"/>
</svg>
