<?xml version="1.0" encoding="UTF-8"?>
<svg xmlns="http://www.w3.org/2000/svg" viewBox="0 0 24 24" width="48" height="48">
  <path d="M14.859 17.755c.121.281.369.445.627.445.11 0 .22-.31.322-.095l2.29-1.435c.137-.086.244-.215.299-.369a.636.636 0 0 0-.04-.499l-1.689-3.93.597.403a.143.143 0 0 0 .149.009.129.129 0 0 0 .081-.127V7.681a.148.148 0 0 0-.068-.127.153.153 0 0 0-.152-.005l-5.45 2.97a.141.141 0 0 0-.081.127v5.115c0 .052.03.1.076.127.014.008.03.014.045.018a.15.15 0 0 0 .045.007.149.149 0 0 0 .068-.017l.622-.339-1.75 4.075a.637.637 0 0 0-.039.499c.55.154.162.283.299.369l2.29 1.435c.102.064.213.095.323.095a.664.664 0 0 0 .62-.431l1.547-3.776zm1.602-4.306l1.528 3.557-2.047 1.283-1.528-3.557 2.047-1.283zm-1.1-4.756l4.869-2.654v4.178l-4.87 2.654V8.693zm-2.324 10.307l-1.529 3.731-2.047-1.283 1.528-3.56 2.048 1.112z" fill="#DD0031"/>
</svg>
