<?xml version="1.0" encoding="UTF-8"?>
<svg xmlns="http://www.w3.org/2000/svg" viewBox="0 0 24 24" width="48" height="48">
  <path d="M12 6.25v11.5A4.75 4.75 0 0 1 7.25 22H4.75A4.75 4.75 0 0 1 0 17.25v-10.5A4.75 4.75 0 0 1 4.75 2h14.5A4.75 4.75 0 0 1 24 6.75v10.5a4.75 4.75 0 0 1-4.75 4.75H17.3l.1-.137a4.249 4.249 0 0 0 .6-2.113V6.25H12Z" fill="#06B6D4"/><path d="M12 6.25v11.5c0 .645-.154 1.29-.45 1.875l-.055.113-.1.137h-4.17A4.75 4.75 0 0 1 2.5 15.125v-6.25A4.75 4.75 0 0 1 7.25 4.125h4.167l.15.15a.838.838 0 0 1 .434.725v1.25Z" fill="#06B6D4"/>
</svg>
