<?xml version="1.0" encoding="UTF-8"?>
<svg xmlns="http://www.w3.org/2000/svg" viewBox="0 0 24 24" width="48" height="48">
  <path d="M22.27 11.34c0-1.45-1.32-2.755-3.35-3.422 0.47-2.037 0.261-3.664-0.66-4.186-0.236-0.135-0.512-0.197-0.814-0.197v0.788c0.167 0 0.301 0.032 0.414 0.093 0.497 0.278 0.711 1.335 0.544 2.698-0.04 0.334-0.105 0.685-0.185 1.044-0.713-0.166-1.489-0.293-2.309-0.38-0.486-0.66-0.993-1.258-1.512-1.778 1.185-1.082 2.299-1.675 3.057-1.675v-0.788c-1.004 0-2.318 0.693-3.647 1.894-1.325-1.183-2.638-1.857-3.643-1.857v0.788c0.757 0 1.873 0.585 3.058 1.654-0.514 0.522-1.023 1.117-1.512 1.778-0.825 0.088-1.6 0.215-2.312 0.383-0.084-0.356-0.148-0.702-0.19-1.034-0.17-1.362 0.041-2.419 0.534-2.7 0.11-0.063 0.247-0.093 0.418-0.093v-0.788c-0.307 0-0.585 0.063-0.826 0.198-0.917 0.522-1.122 2.148-0.649 4.18-2.022 0.67-3.338 1.97-3.338 3.417 0 1.445 1.32 2.756 3.35 3.423-0.47 2.037-0.26 3.664 0.66 4.186 0.236 0.135 0.513 0.198 0.823 0.198 1.006 0 2.322-0.694 3.647-1.894 1.326 1.182 2.637 1.857 3.643 1.857 0.307 0 0.585-0.064 0.826-0.198 0.917-0.521 1.122-2.148 0.648-4.18 2.010-0.665 3.327-1.978 3.327-3.423zM17.448 8.456c-0.135 0.463-0.304 0.94-0.498 1.42-0.152-0.294-0.312-0.587-0.485-0.88-0.169-0.293-0.349-0.578-0.533-0.86 0.52 0.077 1.019 0.185 1.516 0.32zM16.253 11.702c-0.286 0.488-0.58 0.959-0.887 1.406-0.547 0.047-1.104 0.071-1.67 0.071s-1.121-0.024-1.665-0.07c-0.306-0.448-0.604-0.916-0.89-1.398-0.273-0.467-0.522-0.94-0.752-1.417 0.229-0.477 0.48-0.953 0.754-1.42 0.285-0.488 0.578-0.958 0.884-1.406 0.548-0.047 1.106-0.072 1.67-0.072s1.122 0.024 1.666 0.072c0.307 0.448 0.604 0.916 0.889 1.397 0.274 0.467 0.523 0.942 0.752 1.42-0.228 0.477-0.48 0.953-0.751 1.419zM16.95 11.322c0.2 0.482 0.372 0.962 0.51 1.428-0.496 0.137-0.997 0.245-1.516 0.323 0.184-0.283 0.365-0.571 0.534-0.864 0.169-0.293 0.33-0.588 0.47-0.887zM13.7 15.348c-0.35-0.37-0.7-0.78-1.046-1.225 0.343 0.013 0.69 0.021 1.044 0.021s0.7-0.007 1.042-0.02c-0.342 0.443-0.692 0.854-1.04 1.224zM11.35 13.073c-0.518-0.077-1.017-0.185-1.513-0.322 0.136-0.466 0.306-0.944 0.5-1.427 0.142 0.295 0.292 0.588 0.451 0.882 0.16 0.293 0.34 0.578 0.562 0.866zM13.686 7.646c0.35 0.37 0.698 0.78 1.04 1.224-0.34-0.015-0.688-0.023-1.038-0.023s-0.7 0.007-1.042 0.022c0.343-0.443 0.693-0.853 1.04-1.223zM11.346 9.92c-0.183-0.283-0.364-0.57-0.533-0.863-0.169-0.294-0.33-0.588-0.471-0.887-0.199 0.482-0.37 0.961-0.508 1.427 0.494 0.137 0.995 0.245 1.512 0.322zM7.83 12.61c-1.13-0.475-1.858-1.097-1.858-1.586 0-0.49 0.729-1.114 1.858-1.585 0.273-0.115 0.572-0.218 0.879-0.311 0.182 0.616 0.424 1.258 0.723 1.913-0.295 0.648-0.532 1.287-0.71 1.897-0.312-0.095-0.616-0.199-0.892-0.328zM9.35 16.32c-0.496-0.278-0.71-1.336-0.543-2.698 0.04-0.334 0.104-0.685 0.184-1.045 0.711 0.167 1.488 0.294 2.308 0.381 0.485 0.66 0.992 1.258 1.512 1.779-1.184 1.081-2.298 1.674-3.055 1.674-0.162 0-0.297-0.03-0.405-0.091zM17.408 13.611c0.17-1.362-0.041-2.42-0.534-2.701-0.108-0.062-0.245-0.092-0.414-0.092-0.756 0-1.873 0.584-3.058 1.653 0.514 0.522 1.023 1.118 1.512 1.779 0.825 0.087 1.6 0.214 2.31 0.382 0.084-0.357 0.148-0.703 0.188-1.035zM19.08 12.61c-0.272 0.114-0.57 0.216-0.877 0.31-0.182-0.616-0.423-1.257-0.723-1.913 0.294-0.648 0.531-1.286 0.708-1.895 0.317 0.095 0.615 0.199 0.893 0.328 1.13 0.474 1.859 1.097 1.859 1.585 0 0.49-0.729 1.114-1.86 1.585z" fill="#EE4C2C"/>
</svg>
